<svg id="Layer_1" data-name="Layer 1" xmlns="http://www.w3.org/2000/svg" viewBox="0 0 16 16"><defs><style>.cls-1{fill:#f5f5f5;}</style></defs><title>link</title><path class="cls-1" d="M10.71,1,8.54,3.13S6.75,4.92,8.05,6.87L6.87,8.05c-2-1.3-3.74.49-3.74.49L1,10.71A3,3,0,0,0,1,15a3,3,0,0,0,4.33,0l2.17-2.17s1.79-1.79.49-3.74L9.13,7.95c2,1.3,3.74-.49,3.74-.49L15,5.29A3,3,0,0,0,15,1,3,3,0,0,0,10.71,1ZM6.84,11a2.31,2.31,0,0,1-.47.83L4.22,13.95a2.31,2.31,0,0,1-.83.47A1.25,1.25,0,0,1,2,14a1.25,1.25,0,0,1-.46-1.35,2.31,2.31,0,0,1,.47-.83L4.2,9.63A2.31,2.31,0,0,1,5,9.16a1.06,1.06,0,0,1,.71,0l-1,1a.77.77,0,0,0,1.08,1.08l1-1A1.06,1.06,0,0,1,6.84,11Zm7.58-7.58a2.31,2.31,0,0,1-.47.83L11.8,6.37a2.31,2.31,0,0,1-.83.47,1.06,1.06,0,0,1-.71,0l1-1a.77.77,0,0,0-1.08-1.08l-1,1a1.06,1.06,0,0,1,0-.71,2.31,2.31,0,0,1,.47-.83l2.15-2.15a2.31,2.31,0,0,1,.83-.47A1.25,1.25,0,0,1,14,2,1.25,1.25,0,0,1,14.42,3.39Z"/></svg>