<svg id="Layer_1" data-name="Layer 1" xmlns="http://www.w3.org/2000/svg" viewBox="0 0 89.23 33.83"><defs><style>.cls-1{fill:#f5f5f5;}</style></defs><title>divider</title><path class="cls-1" d="M88.15,11.83A17.65,17.65,0,0,0,84,5.36,15.8,15.8,0,0,0,78.63,1.9,16.34,16.34,0,0,0,74.3,1c-1.06,0-1.65,0-1.65,0s.6,0,1.64.13a16.21,16.21,0,0,1,4.22,1.14A15.38,15.38,0,0,1,83.59,5.8a16.9,16.9,0,0,1,4.17,13.87,14,14,0,0,1-7.18,10.15A18.4,18.4,0,0,1,77,31.3a14.87,14.87,0,0,1-3.83.62,17,17,0,0,1-5.78-.86,28,28,0,0,1-6.47-3.22A54,54,0,0,1,54.74,23c-1.37-1.22-2.67-2.48-3.9-3.7,8.53-.14,21.82-.42,21.82-.42s-14.22-.3-22.68-.44c-1.06-1.07-2.06-2.11-3-3.08,7.46-.09,25.67-.48,25.67-.48s-19.86-.43-26.59-.49l-1.14-1.19c-2.54-2.68-4.27-4.32-4.27-4.32s1.64,1.72,4,4.53l.85,1h-.88c-1,0-2.88,0-5.2.06-1.3-1.44-2.7-2.93-4.19-4.4a54.55,54.55,0,0,0-6-5.19A29.32,29.32,0,0,0,22.55,1.2,18.43,18.43,0,0,0,16.19,0a15.3,15.3,0,0,0-4.34.59,18.15,18.15,0,0,0-4,1.71A16.08,16.08,0,0,0,3,6.6,15.44,15.44,0,0,0,1.08,9.92a16.77,16.77,0,0,0-1,3.88,17.22,17.22,0,0,0,1.05,8,18.1,18.1,0,0,0,4.18,6.4,16.93,16.93,0,0,0,5.38,3.51A17.15,17.15,0,0,0,15,32.81c1.05.09,1.65.11,1.65.11s-.59-.05-1.63-.19a17,17,0,0,1-4.18-1.28,16.51,16.51,0,0,1-5.05-3.66A17.36,17.36,0,0,1,2.1,21.49,16.13,16.13,0,0,1,1.45,14a15.46,15.46,0,0,1,1-3.47A14,14,0,0,1,4.29,7.63,14.63,14.63,0,0,1,8.77,4a18.44,18.44,0,0,1,3.62-1.46,15.94,15.94,0,0,1,9.6.28A28.32,28.32,0,0,1,28.45,6a54.4,54.4,0,0,1,6.14,4.79c1.36,1.22,2.66,2.46,3.89,3.68-8.53.14-21.82.42-21.82.42s14.22.3,22.68.44c1.06,1.07,2.06,2.11,3,3.08-7.46.09-25.66.48-25.66.48s19.85.43,26.59.49l1.15,1.2c2.54,2.67,4.26,4.31,4.26,4.31s-1.64-1.72-4-4.52l-.85-1h.88c1,0,2.88,0,5.2-.06,1.31,1.44,2.71,2.94,4.2,4.41A54.18,54.18,0,0,0,60.11,29a29.06,29.06,0,0,0,6.68,3.68,18.36,18.36,0,0,0,6.37,1.19,15.31,15.31,0,0,0,4.35-.61,18.12,18.12,0,0,0,4-1.73,15.59,15.59,0,0,0,4.82-4.39,15,15,0,0,0,1.81-3.35,16.85,16.85,0,0,0,1-3.89A17.83,17.83,0,0,0,88.15,11.83Zm-43.5,6.59H42.92c-.83-1-1.72-2-2.67-3.06l4.4,0h1.73c.83,1,1.72,2,2.67,3.06Z"/></svg>